<?xml version="1.0" encoding="UTF-8" standalone="no"?>
<svg
   width="4300pt"
   height="4500pt"
   fill="none"
   version="1.1"
   id="svg76"
   sodipodi:docname="Campus_Coquimatlan.svg"
   inkscape:version="1.3.2 (091e20e, 2023-11-25, custom)"
   inkscape:export-filename="..\Pictures\Saved Pictures\Campus_Coquimatlan.svg"
   inkscape:export-xdpi="96"
   inkscape:export-ydpi="96"
   xmlns:inkscape="http://www.inkscape.org/namespaces/inkscape"
   xmlns:sodipodi="http://sodipodi.sourceforge.net/DTD/sodipodi-0.dtd"
   xmlns="http://www.w3.org/2000/svg"
   xmlns:svg="http://www.w3.org/2000/svg">
  <defs
     id="defs76" />
  <sodipodi:namedview
     id="namedview76"
     pagecolor="#ffffff"
     bordercolor="#000000"
     borderopacity="0.25"
     inkscape:showpageshadow="2"
     inkscape:pageopacity="0.0"
     inkscape:pagecheckerboard="0"
     inkscape:deskcolor="#d1d1d1"
     inkscape:document-units="pt"
     inkscape:zoom="0.11416684"
     inkscape:cx="3254.0098"
     inkscape:cy="2833.5725"
     inkscape:window-width="1920"
     inkscape:window-height="1051"
     inkscape:window-x="-9"
     inkscape:window-y="-9"
     inkscape:window-maximized="1"
     inkscape:current-layer="svg76" />
  <path
     d="m 1080.9893,3653.6205 289.3761,40.3885 -21.853,153.9172 -289.268,-40.5041 z"
     id="path1"
     style="fill:#0ff083;fill-opacity:1;stroke:#000000;stroke-width:1.6554;stroke-linecap:round;stroke-linejoin:round;stroke-miterlimit:10;stroke-opacity:1" />
  <path
     d="m 2821.7439,3661.1865 336.8176,54.07 -21.6673,133.1306 -336.8185,-54.1849 z"
     id="path2"
     style="fill:#0ff083;fill-opacity:1;stroke:#000000;stroke-width:1.6554;stroke-linecap:round;stroke-linejoin:round;stroke-miterlimit:10;stroke-opacity:1"
     inkscape:label="Telefonia" />
  <path
     d="m 2852.9318,3929.1174 268.9679,39.1481 -19.072,129.7826 -269.0781,-39.2622 z"
     id="path3"
     style="fill:#0ff083;fill-opacity:1;stroke:#000000;stroke-width:1.6554;stroke-linecap:round;stroke-linejoin:round;stroke-miterlimit:10;stroke-opacity:1"
     inkscape:label="Brenda" />
  <path
     d="m 2366.9182,4405.587 20.7889,-86.3857 31.0637,-67.6229 -16.9277,-2.6397 16.7481,-102.8945 239.2889,38.3192 -17.9979,111.5158 -76.2373,-13.0269 3.9413,65.5451 -8.9892,88.9459 -16.8204,76.4823 -25.5563,75.2792 -148.4141,-22.522 -5.531,-74.6062 z"
     id="path4"
     style="fill:#0ff083;fill-opacity:1;stroke:#000000;stroke-width:1.6554;stroke-linecap:round;stroke-linejoin:round;stroke-miterlimit:10;stroke-opacity:1"
     inkscape:label="Laboratorio2" />
  <path
     d="m 2729.2807,4160.331 105.0581,15.9293 -4.4855,29.8887 86.4924,13.071 2.2965,-15.0593 108.6614,16.3638 -45.826,300.6147 -300.3209,-45.249 z"
     id="path5"
     style="fill:#0ff083;fill-opacity:1;stroke:#000000;stroke-width:1.6554;stroke-linecap:round;stroke-linejoin:round;stroke-miterlimit:10;stroke-opacity:1"
     inkscape:label="IIsaac" />
  <path
     d="m 1859.181,4292.6296 256.7636,41.1857 -37.0424,229.5845 -256.6548,-41.1863 z"
     id="path6"
     style="fill:#0ff083;fill-opacity:1;stroke:#000000;stroke-width:1.6554;stroke-linecap:round;stroke-linejoin:round;stroke-miterlimit:10;stroke-opacity:1"
     inkscape:label="MecatronicaLab" />
  <path
     d="m 2383.0065,4587.7234 61.1571,9.3409 -13.2658,85.7599 -61.048,-9.3418 z"
     id="path7"
     style="fill:#0ff083;fill-opacity:1;stroke:#000000;stroke-width:1.6554;stroke-linecap:round;stroke-linejoin:round;stroke-miterlimit:10;stroke-opacity:1" />
  <path
     d="m 3625.8118,3842.2699 -11.0066,65.3029 -22.1637,29.0915 -14.3457,39.7177 0.3395,49.1479 13.4291,49.2864 11.7656,-2.2624 -8.8436,-33.0128 208.6975,31.9846 9.1951,-58.9763 -208.6973,-31.8682 6.7292,-36.793 22.5734,-32.9982 168.4147,28.0101 5.5581,-32.7679 -8.3127,-34.8532 z"
     style="fill:#0ff083;fill-opacity:1;stroke:#000000;stroke-width:1.6554;stroke-linecap:round;stroke-linejoin:round;stroke-miterlimit:10;stroke-opacity:1"
     id="path79"
     inkscape:label="EdificioD" />
  <path
     d="m 3226.5854,3818.9462 246.4758,36.4313 -23.781,158.8689 -246.476,-36.4313 z"
     id="path10"
     style="fill:#0ff083;fill-opacity:1;stroke:#000000;stroke-width:1.6554;stroke-linecap:round;stroke-linejoin:round;stroke-miterlimit:10;stroke-opacity:1"
     inkscape:label="Mecanica" />
  <path
     d="m 3158.7378,4233.9978 401.5553,59.9028 -38.7438,261.2237 -401.5554,-59.903 z"
     id="path10-1"
     style="fill:#0ff083;fill-opacity:1;stroke:#000000;stroke-width:2.70942;stroke-linecap:round;stroke-linejoin:round;stroke-miterlimit:10;stroke-opacity:1"
     inkscape:label="CanchasFIME" />
  <path
     d="m 3608.9686,3629.821 182.5899,26.8793 -23.5679,158.0635 -182.7001,-26.9933 z"
     id="path12"
     style="fill:#0ff083;fill-opacity:1;stroke:#000000;stroke-width:1.6554;stroke-linecap:round;stroke-linejoin:round;stroke-miterlimit:10;stroke-opacity:1"
     inkscape:label="LabElectronica" />
  <path
     d="m 3325.1247,3584.9192 182.5897,26.8796 -23.5683,158.0635 -182.699,-26.879 z"
     id="path13"
     style="fill:#0ff083;fill-opacity:1;stroke:#000000;stroke-width:1.6554;stroke-linecap:round;stroke-linejoin:round;stroke-miterlimit:10;stroke-opacity:1"
     inkscape:label="TallerMaquinas" />
  <path
     d="m 4245.9197,2734.8753 267.0885,35.7138 -35.813,265.0616 -267.0881,-35.599 z"
     id="path14"
     style="fill:#0ff083;fill-opacity:1;stroke:#000000;stroke-width:1.6554;stroke-linecap:round;stroke-linejoin:round;stroke-miterlimit:10;stroke-opacity:1" />
  <path
     d="m 4949.7729,1911.9116 348.2198,46.6392 -19.2043,142.0713 -348.3284,-46.5236 z"
     id="path15"
     style="fill:#0ff083;fill-opacity:1;stroke:#000000;stroke-width:1.6554;stroke-linecap:round;stroke-linejoin:round;stroke-miterlimit:10;stroke-opacity:1" />
  <path
     d="m 4679.3969,2155.5229 181.7991,23.0941 -31.4782,244.9353 -181.9092,-23.2081 z"
     id="path16"
     style="fill:#0ff083;fill-opacity:1;stroke:#000000;stroke-width:1.6554;stroke-linecap:round;stroke-linejoin:round;stroke-miterlimit:10;stroke-opacity:1" />
  <path
     d="m 4700.4799,2476.5782 113.5593,14.8361 -10.4709,79.5397 -113.5585,-14.7214 z"
     id="path17"
     style="fill:#0ff083;fill-opacity:1;stroke:#000000;stroke-width:1.6554;stroke-linecap:round;stroke-linejoin:round;stroke-miterlimit:10;stroke-opacity:1" />
  <path
     d="m 3847.9625,2419.9728 292.4749,189.6516 -79.2452,120.5503 -292.366,-189.6524 z"
     id="path18"
     style="fill:#0ff083;fill-opacity:1;stroke:#000000;stroke-width:1.6554;stroke-linecap:round;stroke-linejoin:round;stroke-miterlimit:10;stroke-opacity:1" />
  <path
     d="m 3177.4548,2512.205 210.7548,29.7865 -3.8491,27.243 -13.526,95.4081 -16.9611,119.4326 -211.8461,-29.7792 z"
     id="path19"
     style="fill:#0ff083;fill-opacity:1;stroke:#000000;stroke-width:1.6554;stroke-linecap:round;stroke-linejoin:round;stroke-miterlimit:10;stroke-opacity:1"
     inkscape:label="DireccionFIME" />
  <path
     d="m 3556.1749,2964.7014 94.2437,-1.9114 80.4637,24.8256 -46.4052,374.804 -88.0164,3.2466 -84.844,-27.2073 z"
     id="path20"
     style="fill:#0ff083;fill-opacity:1;stroke:#000000;stroke-width:1.6554;stroke-linecap:round;stroke-linejoin:round;stroke-miterlimit:10;stroke-opacity:1"
     inkscape:label="ExplanadaICI" />
  <path
     d="m 4056.6699,3040.152 241.9235,40.8253 -22.3375,130.7238 -241.8136,-40.7112 z"
     id="path21"
     style="fill:#0ff083;fill-opacity:1;stroke:#000000;stroke-width:1.6554;stroke-linecap:round;stroke-linejoin:round;stroke-miterlimit:10;stroke-opacity:1"
     inkscape:label="Posgrado" />
  <path
     d="m 3781.9258,2852.2461 -21.4824,153.7324 -233.1641,-32.1914 -0.059,0.416 455.5723,62.8965 21.5215,-154.0293 z"
     style="fill:#0ff083;stroke:#000000;stroke-width:1.6554;stroke-linecap:round;stroke-linejoin:round;stroke-miterlimit:10;fill-opacity:1"
     id="path133"
     inkscape:label="EdificioA" />
  <path
     d="m 3781.9258,2852.2461 -233.0742,-32.3047 -21.5723,153.8457 233.1641,32.1914 z"
     style="fill:#0ff083;stroke:#000000;stroke-width:1.6554;stroke-linecap:round;stroke-linejoin:round;stroke-miterlimit:10;fill-opacity:1"
     id="path132"
     inkscape:label="LabFísica" />
  <path
     d="m 3441.0381,3323.3264 511.129,66.9949 -18.4644,138.7356 -511.0194,-66.8807 z"
     id="path23"
     style="fill:#0ff083;fill-opacity:1;stroke:#000000;stroke-width:1.6554;stroke-linecap:round;stroke-linejoin:round;stroke-miterlimit:10;stroke-opacity:1"
     inkscape:label="EdificioB" />
  <path
     d="m 3044.5965,3260.5948 170.4838,27.4225 -21.5635,132.326 -170.4839,-27.4224 z"
     id="path24"
     style="fill:#0ff083;fill-opacity:1;stroke:#000000;stroke-width:1.6554;stroke-linecap:round;stroke-linejoin:round;stroke-miterlimit:10;stroke-opacity:1"
     inkscape:label="AuditoriICI" />
  <path
     d="m 2948.1895,3439.8296 236.7499,34.0869 -19.0625,131.1606 -236.8583,-33.9714 z"
     id="path25"
     style="fill:#0ff083;fill-opacity:1;stroke:#000000;stroke-width:1.6554;stroke-linecap:round;stroke-linejoin:round;stroke-miterlimit:10;stroke-opacity:1"
     inkscape:label="Electromagnetismo" />
  <path
     d="m 2787.8144,3343.55 67.4919,10.4456 -28.6441,181.525 -67.4919,-10.4456 z"
     id="path26"
     style="fill:#0ff083;fill-opacity:1;stroke:#000000;stroke-width:1.6554;stroke-linecap:round;stroke-linejoin:round;stroke-miterlimit:10;stroke-opacity:1"
     inkscape:label="CubiculosFIME" />
  <path
     d="m 2166.7467,3359.8754 150.2015,12.8635 -0.8335,21.5951 14.9561,1.5049 10.0991,-38.5398 54.0185,18.3473 -5.7732,17.1504 24.8403,11.0834 2.2539,-5.4129 112.2445,45.7379 -8.0413,20.4964 34.8254,3.5501 1.7211,-19.4192 98.02,7.8243 -0.6467,17.0005 40.4885,2.1333 -7.051,116.9529 -54.0281,-3.8777 -4.8941,65.7206 -98.4643,-8.9698 6.2197,-79.1656 -56.5537,-6.272 -33.7527,73.1537 -94.857,-39.6563 32.315,-76.0146 -36.8884,-18.0057 -37.1003,-1.2379 -8.1868,78.7198 -101.7464,-10.3255 8.5503,-73.4397 -53.6052,-5.8329 z"
     id="path27"
     style="fill:#0ff083;fill-opacity:1;stroke:#000000;stroke-width:1.6554;stroke-linecap:round;stroke-linejoin:round;stroke-miterlimit:10;stroke-opacity:1"
     inkscape:label="PosgradoArquitectura" />
  <path
     d="m 2654.7025,3086.9993 345.8597,52.4002 -19.7352,128.524 -345.8592,-52.2855 z"
     id="path28"
     style="fill:#0ff083;fill-opacity:1;stroke:#000000;stroke-width:1.6554;stroke-linecap:round;stroke-linejoin:round;stroke-miterlimit:10;stroke-opacity:1"
     inkscape:label="EdificioC" />
  <path
     d="m 2281.5078,2787.4272 -9.3625,2.9342 -8.0338,5.6816 -5.8366,7.8494 -3.0991,9.3237 0.066,9.7603 -15.5679,131.5974 3.087,36.6112 13.5212,30.6824 22.5347,24.996 29.1352,16.7949 32.9959,7.122 113.5584,14.724 10.5776,-0.531 9.7917,-3.972 7.8057,-7.059 5.0632,-9.2219 1.5665,-10.3471 16.0942,-134.5849 -4.3964,-36.3735 -16.5888,-32.8431 -26.7927,-25.3111 -33.813,-14.8114 -132.4825,-22.7456 v 0 z"
     style="fill:#0ff083;fill-opacity:1;stroke:#000000;stroke-width:1.6554;stroke-linecap:round;stroke-linejoin:round;stroke-miterlimit:10;stroke-opacity:1"
     id="path78"
     inkscape:label="Servicios" />
  <path
     d="m 1511.4198,2978.2942 -21.8096,144.3839 381.6661,56.0616 -13.5868,86.5667 121.2212,18.6889 13.5892,-86.5669 21.5914,-144.1536 z"
     style="fill:#0ff083;fill-opacity:1;stroke:#000000;stroke-width:1.6554;stroke-linecap:round;stroke-linejoin:round;stroke-miterlimit:10;stroke-opacity:1"
     id="path80" />
  <path
     d="m 1184.1817,2921.054 178.7731,27.2524 -38.3389,247.3931 -178.7733,-27.2524 z"
     id="path34"
     style="fill:#0ff083;fill-opacity:1;stroke:#000000;stroke-width:1.6554;stroke-linecap:round;stroke-linejoin:round;stroke-miterlimit:10;stroke-opacity:1" />
  <path
     d="m 977.25985,3052.3554 93.92875,15.777 -10.4856,61.7396 -94.03785,-15.7763 z"
     id="path35"
     style="fill:#0ff083;fill-opacity:1;stroke:#000000;stroke-width:1.6554;stroke-linecap:round;stroke-linejoin:round;stroke-miterlimit:10;stroke-opacity:1" />
  <path
     d="m 1487.0846,3263.3716 164.3549,24.595 -27.9677,184.8504 -164.4642,-24.5943 z"
     id="path36"
     style="fill:#0ff083;fill-opacity:1;stroke:#000000;stroke-width:1.6554;stroke-linecap:round;stroke-linejoin:round;stroke-miterlimit:10;stroke-opacity:1" />
  <path
     d="m 1065.1107,3215.74 92.5083,15.4423 2.8311,-16.671 64.2205,10.6984 -3.6683,21.8444 77.545,12.9036 -12.5805,74.3861 -14.4171,-2.4275 -10.3788,61.3945 21.9528,3.6389 -9.2237,54.8407 -133.9019,-22.2779 19.3939,-114.8556 -107.9079,-17.9779 z"
     id="path37"
     style="fill:#0ff083;fill-opacity:1;stroke:#000000;stroke-width:1.6554;stroke-linecap:round;stroke-linejoin:round;stroke-miterlimit:10;stroke-opacity:1" />
  <path
     d="m 929.20683,2377.2122 41.49048,5.1126 -2.03609,-10.5511 21.18199,2.6107 3.10319,-24.7113 60.4891,7.5085 -2.8968,22.9873 31.1177,3.8058 -2.0691,16.4358 38.2147,4.6757 -8.896,70.8009 -30.8995,-3.8071 -5.4805,43.9054 -111.26011,-13.7057 6.51551,-52.0661 -46.94964,-5.7642 z"
     id="path38"
     style="fill:#0ff083;fill-opacity:1;stroke:#000000;stroke-width:1.6554;stroke-linecap:round;stroke-linejoin:round;stroke-miterlimit:10;stroke-opacity:1" />
  <path
     d="m 1187.4998,2403.2299 350.1108,52.1439 -20.246,133.6948 -350.002,-52.1448 z"
     id="path39"
     style="fill:#0ff083;fill-opacity:1;stroke:#000000;stroke-width:1.6554;stroke-linecap:round;stroke-linejoin:round;stroke-miterlimit:10;stroke-opacity:1" />
  <path
     d="m 1378.0189,2663.6361 350.1114,52.1436 -20.2452,133.8096 -350.0033,-52.2591 z"
     id="path40"
     style="fill:#0ff083;fill-opacity:1;stroke:#000000;stroke-width:1.6554;stroke-linecap:round;stroke-linejoin:round;stroke-miterlimit:10;stroke-opacity:1" />
  <path
     d="m 1070.65,2640.0226 233.1414,33.0804 -19.0526,132.7679 -233.1415,-33.0804 z"
     id="path41"
     style="fill:#0ff083;fill-opacity:1;stroke:#000000;stroke-width:1.6554;stroke-linecap:round;stroke-linejoin:round;stroke-miterlimit:10;stroke-opacity:1" />
  <path
     d="m 1890.0357,2749.1189 233.1416,33.0794 -19.1611,132.7687 -233.0327,-33.0801 z"
     id="path42"
     style="fill:#0ff083;fill-opacity:1;stroke:#000000;stroke-width:1.6554;stroke-linecap:round;stroke-linejoin:round;stroke-miterlimit:10;stroke-opacity:1" />
  <path
     d="m 1760.5719,2483.4706 350.0021,52.1436 -20.2449,133.8098 -350.0031,-52.2584 z"
     id="path44"
     style="fill:#0ff083;fill-opacity:1;stroke:#000000;stroke-width:1.6554;stroke-linecap:round;stroke-linejoin:round;stroke-miterlimit:10;stroke-opacity:1" />
  <path
     d="m 2839.6957,2130.3957 206.0483,138.6853 -186.8571,272.6451 -204.9576,-138.6927 z"
     id="path45"
     style="fill:#0ff083;fill-opacity:1;stroke:#000000;stroke-width:1.6554;stroke-linecap:round;stroke-linejoin:round;stroke-miterlimit:10;stroke-opacity:1"
     inkscape:label="Biblioteca" />
  <path
     d="m 1588.0355,2077.5572 329.8389,55.0385 -22.856,134.8612 -329.8399,-55.1534 z"
     id="path46"
     style="fill:#0ff083;fill-opacity:1;stroke:#000000;stroke-width:1.6554;stroke-linecap:round;stroke-linejoin:round;stroke-miterlimit:10;stroke-opacity:1"
     inkscape:label="FIC" />
  <path
     d="m 1335.1668,1189.0744 325.2646,40.4861 -18.1077,143.2117 -325.2656,-40.601 z"
     id="path47"
     style="fill:#0ff083;fill-opacity:1;stroke:#000000;stroke-width:1.6554;stroke-linecap:round;stroke-linejoin:round;stroke-miterlimit:10;stroke-opacity:1" />
  <path
     d="m 1751.5962,1319.541 34.2637,-46.4 279.4489,40.9148 17.2412,64.1905 -2.1019,59.2704 -26.4855,67.0174 -28.1563,46.1283 -281.0096,-45.7272 -8.7555,-51.7316 -1.3545,-70.1563 z"
     id="path48"
     style="fill:#0ff083;fill-opacity:1;stroke:#000000;stroke-width:1.6554;stroke-linecap:round;stroke-linejoin:round;stroke-miterlimit:10;stroke-opacity:1"
     inkscape:label="Expalandadiseno" />
  <path
     d="m 1723.83,1486.0161 23.038,2.8276 277.3789,41.2735 30.2528,4.9599 -23.821,137.2794 -329.8382,-55.0382 z"
     id="path49"
     style="fill:#0ff083;fill-opacity:1;stroke:#000000;stroke-width:1.6554;stroke-linecap:round;stroke-linejoin:round;stroke-miterlimit:10;stroke-opacity:1" />
  <path
     d="m 2191.6912,1496.468 338.91,41.6539 -16.2318,130.3371 -338.9103,-41.6539 z"
     id="path50"
     style="fill:#0ff083;fill-opacity:1;stroke:#000000;stroke-width:1.6554;stroke-linecap:round;stroke-linejoin:round;stroke-miterlimit:10;stroke-opacity:1" />
  <path
     d="m 1795.1088,1158.4698 446.496,60.6674 -19.6416,142.1888 -32.9768,-4.4816 -135.9479,-18.5884 -277.4633,-37.7131 z"
     id="path51"
     style="fill:#0ff083;fill-opacity:1;stroke:#000000;stroke-width:1.6554;stroke-linecap:round;stroke-linejoin:round;stroke-miterlimit:10;stroke-opacity:1" />
  <path
     d="m 2538.6774,1078.2575 44.0033,5.6691 205.0578,26.4961 -16.8901,129.7676 -33.6306,-4.3625 -162.6916,-20.9306 -6.7698,-0.872 -46.0784,-5.9994 z"
     id="path52"
     style="fill:#0ff083;fill-opacity:1;stroke:#000000;stroke-width:1.6554;stroke-linecap:round;stroke-linejoin:round;stroke-miterlimit:10;stroke-opacity:1" />
  <path
     d="m 3012.428,977.50416 271.0847,30.29054 -22.3161,197.3294 -271.0843,-30.1759 z"
     id="path53"
     style="fill:#0ff083;fill-opacity:1;stroke:#000000;stroke-width:1.6554;stroke-linecap:round;stroke-linejoin:round;stroke-miterlimit:10;stroke-opacity:1"
     inkscape:label="CentroInvestigaciones" />
  <path
     d="m 3071.5018,1524.9873 499.2807,343.6053 -92.5793,132.8146 -499.1717,-343.6063 z"
     id="path54"
     style="fill:#0ff083;fill-opacity:1;stroke:#000000;stroke-width:1.6554;stroke-linecap:round;stroke-linejoin:round;stroke-miterlimit:10;stroke-opacity:1"
     inkscape:label="Bachillerato18" />
  <path
     d="m 3626.3599,893.1223 -115.1201,159.4208 -1.7945,-1.1906 -113.9876,157.8543 -0.6887,-0.4584 -116.6236,161.5062 0.8244,0.5481 -115.7553,160.301 629.5621,417.8312 116.7618,-161.5038 -0.9191,-0.6087 113.1656,-156.5277 0.5966,0.3951 32.6004,-45.096 332.9692,27.2124 7.8786,-51.1438 359.9947,224.5174 82.4105,-107.1154 -420.1374,-261.9678 -0.1523,0.9895 -4.1295,-2.7402 -20.0807,-13.3249 -602.2043,-399.5862 -0.1374,0.1915 z"
     style="fill:#0ff083;fill-opacity:1;stroke:#000000;stroke-width:2.05007;stroke-linecap:round;stroke-linejoin:round;stroke-miterlimit:10;stroke-opacity:1"
     id="path81"
     inkscape:label="Estacionamiento1" />
  <path
     d="m 4524.7642,1894.9876 316.2875,35.6042 -18.4143,161.7031 -316.2873,-35.4896 z"
     id="path55"
     style="fill:#0ff083;fill-opacity:1;stroke:#000000;stroke-width:1.6554;stroke-linecap:round;stroke-linejoin:round;stroke-miterlimit:10;stroke-opacity:1" />
  <path
     d="m 4108.9031,2117.1887 425.4232,57.5919 -33.2374,242.9951 -425.532,-57.4763 z"
     id="path56"
     style="fill:#0ff083;fill-opacity:1;stroke:#000000;stroke-width:1.6554;stroke-linecap:round;stroke-linejoin:round;stroke-miterlimit:10;stroke-opacity:1" />
  <path
     d="m 4110.3226,1752.685 282.8265,40.0843 -34.2533,238.0641 -282.8268,-40.0843 z"
     id="path57"
     style="fill:#0ff083;fill-opacity:1;stroke:#000000;stroke-width:1.6554;stroke-linecap:round;stroke-linejoin:round;stroke-miterlimit:10;stroke-opacity:1" />
  <path
     d="m 2666.8173,913.15936 247.0751,28.96324 -15.7754,133.205 -247.1836,-28.8477 z"
     id="path58"
     style="fill:#0ff083;fill-opacity:1;stroke:#000000;stroke-width:1.6554;stroke-linecap:round;stroke-linejoin:round;stroke-miterlimit:10;stroke-opacity:1" />
  <path
     d="m 2367.9078,866.06319 197.3883,21.72584 -14.5962,130.21107 -197.2793,-21.72662 z"
     id="path59"
     style="fill:#0ff083;fill-opacity:1;stroke:#000000;stroke-width:1.6554;stroke-linecap:round;stroke-linejoin:round;stroke-miterlimit:10;stroke-opacity:1" />
  <path
     d="m 1719.8598,860.29468 393.5178,50.81106 -18.9666,145.16986 -393.5188,-50.9259 z"
     id="path60"
     style="fill:#0ff083;fill-opacity:1;stroke:#000000;stroke-width:1.6554;stroke-linecap:round;stroke-linejoin:round;stroke-miterlimit:10;stroke-opacity:1" />
  <path
     d="m 2024.596,659.87732 267.1775,33.30457 -17.6897,140.45283 -267.2876,-33.41869 z"
     id="path61"
     style="fill:#0ff083;fill-opacity:1;stroke:#000000;stroke-width:1.6554;stroke-linecap:round;stroke-linejoin:round;stroke-miterlimit:10;stroke-opacity:1" />
  <path
     d="m 2494.9232,600.83469 346.3666,47.45876 -18.4995,133.68307 -199.1715,-27.22551 -147.3036,-20.11772 z"
     id="path62"
     style="fill:#0ff083;fill-opacity:1;stroke:#000000;stroke-width:1.6554;stroke-linecap:round;stroke-linejoin:round;stroke-miterlimit:10;stroke-opacity:1" />
  <path
     d="m 2212.9342,221.85682 11.6184,7.95879 291.9836,198.26995 -155.1061,225.57299 -303.4932,-206.22973 z"
     id="path63"
     style="fill:#0ff083;fill-opacity:1;stroke:#000000;stroke-width:1.6554;stroke-linecap:round;stroke-linejoin:round;stroke-miterlimit:10;stroke-opacity:1" />
  <path
     d="m 1485.028,834.92063 168.1338,19.17157 -14.8292,128.14549 -24.8924,-2.81482 -143.2415,-16.35677 z"
     id="path64"
     style="fill:#0ff083;fill-opacity:1;stroke:#000000;stroke-width:1.6554;stroke-linecap:round;stroke-linejoin:round;stroke-miterlimit:10;stroke-opacity:1" />
  <path
     d="m 1714.9033,59.223328 74.4416,37.729517 -43.7064,85.165015 58.678,29.79919 -77.5109,150.73966 -60.5387,-30.70512 -20.4466,40.90769 10.4082,6.47424 -19.8117,38.03239 -45.542,87.93368 -15.1077,-7.7052 -32.1872,62.80741 15.5456,7.93185 -105.176,204.90308 -83.8572,-42.60303 z"
     id="path65"
     style="fill:#0ff083;fill-opacity:1;stroke:#000000;stroke-width:1.6554;stroke-linecap:round;stroke-linejoin:round;stroke-miterlimit:10;stroke-opacity:1" />
  <path
     d="m 1736.6478,4669.2342 -70.4655,324.8092 0.7324,2.1292 253.0998,222.5751 682.2094,364.5002 38.738,20.699 344.0799,183.8396 95.7693,-138.9813 10.7812,-15.6479 208.7264,-302.9099 30.7601,-257.6054 159.8136,-224.498 z"
     style="fill:#0ff083;fill-opacity:1;stroke:#000000;stroke-width:1.24155;stroke-opacity:1"
     id="path84"
     inkscape:label="Estacionamiento2" />
  <circle
     style="fill:#0ff083;fill-opacity:1;stroke:#000000;stroke-width:1.24155;stroke-opacity:1"
     id="path85"
     cx="1118.0319"
     cy="1804.979"
     r="124.95793"
     inkscape:label="MonumetnoEntrada" />
  <path
     d="m 1180.0609,1463.2912 -41.8952,104.7439 -2.6383,1.8308 a 185.42127,273.06062 14.876581 0 1 37.979,7.7064 185.42127,273.06062 14.876581 0 1 89.5033,327.2996 185.42127,273.06062 14.876581 0 1 -256.9991,191.5776 185.42127,273.06062 14.876581 0 1 -36.28883,-22.4935 l -0.11918,1.1204 -17.67029,110.1078 -0.0248,0.16 a 259.22314,381.74495 14.876581 0 0 20.71358,10.7012 259.22314,381.74495 14.876581 0 0 359.28902,-267.8288 259.22314,381.74495 14.876581 0 0 -125.1302,-457.5731 259.22314,381.74495 14.876581 0 0 -26.72,-7.3523 z"
     style="fill:#0ff083;fill-opacity:1;stroke:#000000;stroke-width:1.73572;stroke-opacity:1"
     id="path88"
     inkscape:label="Entrada" />
  <g
     id="g91"
     transform="matrix(0.89251381,0,0,0.89251381,209.3979,35.975149)"
     style="fill:#0ff083;fill-opacity:1;stroke:#000000;stroke-opacity:1"
     inkscape:label="FuenteOrnamental">
    <path
       sodipodi:type="star"
       style="fill:#0ff083;fill-opacity:1;stroke:#000000;stroke-opacity:1"
       id="path89"
       inkscape:flatsided="false"
       sodipodi:sides="5"
       sodipodi:cx="2268.6099"
       sodipodi:cy="2181.0188"
       sodipodi:r1="198.58278"
       sodipodi:r2="161.02316"
       sodipodi:arg1="0.84781697"
       sodipodi:arg2="1.3668615"
       inkscape:rounded="0.015512284"
       inkscape:randomized="0"
       d="m 2399.9965,2329.9237 c -1.0353,1.1377 -97.2441,8.6363 -98.7756,8.7814 -2.0737,0.1965 -131.7288,14.1413 -133.6273,13.284 -1.4019,-0.6331 -38.2637,-89.8159 -38.875,-91.2276 -0.8277,-1.9115 -54.1556,-120.9116 -53.9269,-122.9821 0.1689,-1.529 73.5959,-64.1456 74.7495,-65.1632 1.5623,-1.3779 98.2589,-88.8688 100.2987,-89.2911 1.5063,-0.3119 83.7485,50.1717 85.0727,50.9545 1.7933,1.0599 114.8829,65.9877 115.9149,67.7972 0.7621,1.3362 -21.8364,95.1535 -22.1717,96.6548 -0.4539,2.033 -27.2573,129.6514 -28.6593,131.1921 z"
       inkscape:transform-center-x="-9.8210126"
       inkscape:transform-center-y="-9.3709505"
       transform="rotate(14.644587,2670.3575,3910.3731)" />
    <circle
       style="fill:#0ff083;fill-opacity:1;stroke:#000000;stroke-width:1.24093;stroke-opacity:1"
       id="path85-4"
       cx="2723.0769"
       cy="2138.2786"
       r="124.89513" />
  </g>
</svg>
